<?xml version="1.0"?>
<svg xmlns="http://www.w3.org/2000/svg" viewBox="0 0 50 50">
    <path style="text-indent:0;text-align:start;line-height:normal;text-transform:none;block-progression:tb;-inkscape-font-specification:Sans" d="M 24 7 C 18.466667 7 13.384917 11.2035 9.40625 14.1875 C 6.4275833 16.4215 4.1852469 17.921055 2.625 19.15625 C 1.8448766 19.773848 1.2443596 20.329669 0.78125 20.9375 C 0.31814042 21.545331 0 22.25 0 23 C 0 23.608739 0.38698055 24.224554 0.84375 24.53125 C 1.3005195 24.837946 1.7991668 24.937632 2.34375 25 C 3.4329164 25.124737 4.7201669 24.9968 6.15625 24.65625 C 8.285032 24.151447 10.690921 23.221736 12.6875 21.875 C 12.230362 24.140282 12 26.288193 12 28 C 12 31.154769 13.267985 33.589825 15.28125 35.21875 C 14.21635 35.616497 13.166729 36.097686 12.15625 36.625 C 12.14765 36.6295 12.13356 36.6205 12.125 36.625 C 10.254668 37.503429 8.9008595 38.562792 8.03125 39.625 C 7.594344 40.15867 7.2524625 40.676051 7.09375 41.25 C 6.9350375 41.823949 6.9750961 42.481022 7.3125 43.03125 C 7.6958529 43.65641 8.3553119 43.91004 8.96875 43.96875 C 9.5821881 44.02746 10.248676 43.93975 10.96875 43.78125 C 12.408897 43.464254 14.119065 42.81906 15.9375 41.96875 C 17.719116 41.135656 19.133935 40.45723 20.1875 39.71875 C 20.945724 39.187285 21.567692 38.552025 21.84375 37.78125 C 22.857688 37.918572 23.917874 38 25 38 C 25.75377 38 26.49614 37.973129 27.21875 37.90625 C 27.306496 38.11873 27.401943 38.31619 27.53125 38.5 C 27.868931 38.980014 28.313023 39.351594 28.84375 39.71875 C 29.905204 40.453063 31.314138 41.136593 33.09375 41.96875 C 34.912185 42.81906 36.622353 43.464254 38.0625 43.78125 C 38.782574 43.939748 39.449062 44.02746 40.0625 43.96875 C 40.675938 43.91004 41.366647 43.65641 41.75 43.03125 C 42.087404 42.481022 42.096213 41.823949 41.9375 41.25 C 41.778787 40.676051 41.468156 40.15867 41.03125 39.625 C 40.168168 38.570765 38.786385 37.530545 36.9375 36.65625 L 36.9375 36.625 C 36.110064 36.186225 35.24766 35.80747 34.375 35.46875 C 36.587367 33.840854 38 31.301994 38 28 C 38 26.320544 37.858235 24.197647 37.46875 21.9375 C 39.437165 23.234859 41.763542 24.162965 43.84375 24.65625 C 45.279833 24.996792 46.567084 25.124737 47.65625 25 C 48.200833 24.93763 48.699481 24.837946 49.15625 24.53125 C 49.613019 24.224554 50 23.608739 50 23 C 50 22.25 49.68186 21.545331 49.21875 20.9375 C 48.75564 20.329669 48.155123 19.773848 47.375 19.15625 C 45.814753 17.921055 43.572417 16.4215 40.59375 14.1875 C 36.615083 11.2035 31.533333 7 26 7 A 1.0001 1.0001 0 0 0 25.90625 7 A 1.001098 1.001098 0 0 0 25.75 7.03125 C 25.502551 7.0136323 25.255168 7 25 7 C 24.756379 7 24.517994 7.0126252 24.28125 7.03125 A 1.0001 1.0001 0 0 0 24 7 z M 25 9 C 27.164062 9 28.860541 9.7291533 30.28125 10.96875 C 31.701959 12.208347 32.828286 13.995763 33.6875 16 C 35.405929 20.008473 36 24.919805 36 28 C 36 30.909436 34.870403 32.769447 32.9375 34.0625 C 32.553078 34.319666 32.138062 34.544111 31.6875 34.75 A 1.0001 1.0001 0 0 0 31.5 34.84375 C 29.715315 35.615355 27.459928 36 25 36 C 21.813205 36 18.99311 35.377489 17.0625 34.09375 C 15.13189 32.810011 14 30.947481 14 28 C 14 24.940375 14.804755 20.017713 16.625 16 C 17.535123 13.991144 18.669732 12.210776 20.0625 10.96875 C 21.455268 9.7267239 23.056629 9 25 9 z M 25 10 C 23.343 10 22 11.343 22 13 C 22 14.657 23.343 16 25 16 C 26.657 16 28 14.657 28 13 C 28 11.343 26.657 10 25 10 z M 25 11 C 25.276 11 25.5 11.224 25.5 11.5 C 25.5 11.776 25.276 12 25 12 C 24.448 12 24 12.448 24 13 C 24 13.276 23.776 13.5 23.5 13.5 C 23.224 13.5 23 13.276 23 13 C 23 11.895 23.895 11 25 11 z M 17.09375 11.3125 C 16.192728 12.474359 15.412409 13.763133 14.78125 15.15625 C 14.264229 16.297437 13.831763 17.49182 13.46875 18.6875 A 1.0054782 1.0054782 0 0 0 13.1875 18.875 C 11.39757 20.66493 8.2865838 22.078584 5.71875 22.6875 C 4.4348331 22.991958 3.2633336 23.111513 2.5625 23.03125 C 2.2812021 22.999034 2.1529069 22.915653 2.0625 22.875 C 2.083776 22.665479 2.1007369 22.475205 2.34375 22.15625 C 2.6306404 21.779706 3.1551234 21.288652 3.875 20.71875 C 5.3147531 19.578945 7.5724167 18.0785 10.59375 15.8125 C 12.593553 14.312647 14.816166 12.635495 17.09375 11.3125 z M 33.625 11.75 C 35.648768 12.997165 37.618525 14.471706 39.40625 15.8125 C 42.427583 18.0785 44.685247 19.578945 46.125 20.71875 C 46.844877 21.288652 47.36936 21.779706 47.65625 22.15625 C 47.899263 22.475205 47.916224 22.665479 47.9375 22.875 C 47.84709 22.91565 47.718798 22.999034 47.4375 23.03125 C 46.736666 23.11151 45.565167 22.99196 44.28125 22.6875 C 41.713416 22.078584 38.60243 20.66493 36.8125 18.875 A 1.0054782 1.0054782 0 0 0 36.78125 18.84375 C 36.44778 17.602767 36.040008 16.374248 35.53125 15.1875 C 35.008097 13.967173 34.373416 12.803247 33.625 11.75 z M 20.5 16.03125 C 19.358577 16.03125 18.207003 16.426399 17.3125 17.25 A 1.0174263 1.0174263 0 1 0 18.6875 18.75 C 19.724494 17.795202 21.275506 17.795202 22.3125 18.75 A 1.0174263 1.0174263 0 1 0 23.6875 17.25 C 22.792997 16.426399 21.641423 16.03125 20.5 16.03125 z M 29.5 16.03125 C 28.358577 16.03125 27.207003 16.426399 26.3125 17.25 A 1.0174263 1.0174263 0 1 0 27.6875 18.75 C 28.724494 17.795202 30.275506 17.795202 31.3125 18.75 A 1.0174263 1.0174263 0 1 0 32.6875 17.25 C 31.792997 16.426399 30.641423 16.03125 29.5 16.03125 z M 21.90625 19.96875 A 1.0001 1.0001 0 0 0 21.78125 20 A 1.0001 1.0001 0 0 0 21 21 C 20.9901 22.09311 21.874785 22.992073 22.96875 23 A 1.0001 1.0001 0 0 0 23 23 C 23.06561 23 23.130775 23.0097 23.21875 23 C 23.22898 22.999235 23.23978 23.000851 23.25 23 C 23.898999 22.94595 24.477414 22.681352 25 22.3125 C 25.530812 22.687158 26.121004 22.950661 26.78125 23 A 1.0001 1.0001 0 0 0 26.8125 23 C 27.929873 23.0553 28.918083 22.176952 29 21.0625 A 1.0019512 1.0019512 0 0 0 27 20.9375 C 26.9969 20.98023 26.96924 20.99303 26.9375 21 C 26.928 20.999288 26.91575 21.000878 26.90625 21 C 26.461797 20.95892 26.057298 20.728099 25.78125 20.375 A 1.0001 1.0001 0 0 0 24.21875 20.375 C 23.936805 20.735642 23.518009 20.965961 23.0625 21 A 1.0001 1.0001 0 0 0 23 21 A 1.0001 1.0001 0 0 0 21.90625 19.96875 z M 30.0625 24.9375 A 1.0030471 1.0030471 0 0 0 29.8125 25 A 1.0001 1.0001 0 0 0 29.5625 25.09375 C 28.443882 25.650036 27.615885 26.496633 27.21875 27.46875 C 26.821615 28.440867 26.906777 29.655833 27.6875 30.46875 C 28.389264 31.199453 29.559927 31.591706 30.78125 31.3125 C 32.002573 31.033294 33.271352 30.203821 34.71875 28.6875 A 1.0001 1.0001 0 1 0 33.28125 27.3125 C 31.998648 28.656179 30.961177 29.226706 30.3125 29.375 C 29.663823 29.523294 29.393236 29.373 29.125 29.09375 C 28.935723 28.896667 28.884635 28.685383 29.0625 28.25 C 29.240365 27.814617 29.706118 27.269964 30.4375 26.90625 A 1.0030471 1.0030471 0 0 0 30.0625 24.9375 z M 19.78125 25 A 1.0001 1.0001 0 0 0 19.5625 26.90625 C 20.293882 27.269964 20.759635 27.814617 20.9375 28.25 C 21.115365 28.685383 21.064277 28.896667 20.875 29.09375 C 20.606764 29.373047 20.336177 29.523294 19.6875 29.375 C 19.038823 29.226706 18.001352 28.656179 16.71875 27.3125 A 1.0001 1.0001 0 1 0 15.28125 28.6875 C 16.728648 30.203821 17.997427 31.033294 19.21875 31.3125 C 20.440073 31.591706 21.610736 31.199453 22.3125 30.46875 C 23.093223 29.655833 23.178385 28.440867 22.78125 27.46875 C 22.384115 26.496633 21.556118 25.650036 20.4375 25.09375 A 1.0001 1.0001 0 0 0 19.875 25 A 1.0001 1.0001 0 0 0 19.78125 25 z M 17.46875 36.59375 C 18.201526 36.931235 18.990985 37.164031 19.8125 37.375 C 19.671103 37.567748 19.440718 37.80674 19.03125 38.09375 C 18.212315 38.66777 16.862134 39.329344 15.09375 40.15625 C 13.362185 40.96594 11.726103 41.580746 10.53125 41.84375 C 9.9338237 41.975252 9.4309369 41.99504 9.15625 41.96875 C 9.0411785 41.957737 9.0223103 41.941895 9 41.9375 C 8.9969378 41.923275 8.9907234 41.927806 9.03125 41.78125 C 9.0875375 41.577699 9.254406 41.25133 9.5625 40.875 C 10.178688 40.122341 11.3342 39.216437 13 38.4375 A 1.0001 1.0001 0 0 0 13.03125 38.40625 C 14.362446 37.709828 15.756989 37.1438 17.1875 36.6875 A 1.0083877 1.0083877 0 0 0 17.46875 36.59375 z M 32 36.78125 C 33.378647 37.19665 34.729248 37.732394 36 38.40625 A 1.0001 1.0001 0 0 0 36.03125 38.4375 C 37.69705 39.216437 38.852562 40.122341 39.46875 40.875 C 39.776844 41.25133 39.943713 41.577699 40 41.78125 C 40.040529 41.927807 40.034313 41.923275 40.03125 41.9375 C 40.00894 41.941895 39.990072 41.957737 39.875 41.96875 C 39.600313 41.99504 39.097426 41.97525 38.5 41.84375 C 37.305147 41.580746 35.669065 40.96594 33.9375 40.15625 C 32.167112 39.328407 30.797296 38.666937 29.96875 38.09375 C 29.702566 37.909604 29.522487 37.748278 29.375 37.59375 C 30.29799 37.402128 31.176268 37.119248 32 36.78125 z" overflow="visible" font-family="Sans"/>
</svg>
